<svg xmlns="http://www.w3.org/2000/svg" viewBox="0 0 24 24" width="24" height="24">
  <path fill="#F94877" d="M17.727 2.04H6.63C5.397 2.04 4.5 3.079 4.5 4.313v17.769c0 .747.268 1.036.487 1.199.218.163.67.295 1.105.059l5.763-3.63c.107-.065.218-.098.33-.098h2.603c1.15 0 2.137-.823 2.338-1.953l2.164-12.47C19.542 3.89 18.84 2.04 17.727 2.04zm-2.822 5.676l-.44 2.527c-.08.468-.487.814-.965.814h-3.403a.532.532 0 00-.532.532v.482c0 .294.238.532.532.532h2.89c.51 0 .927.434.87.94l-.372 2.352c-.076.469-.484.815-.963.815H10.1a.532.532 0 00-.532.532v.481c0 .294.238.532.532.532h1.8c.45 0 .82.366.82.816v2.7c0 .354-.286.641-.64.641h-.54a.641.641 0 01-.64-.641v-1.37a.532.532 0 00-.532-.532H8.55a.532.532 0 01-.531-.532V7.184c0-.294.238-.532.531-.532h5.39c.512 0 .928.435.87.942l-.06.347-.345 1.775z"/>
</svg>
