<svg xmlns="http://www.w3.org/2000/svg" viewBox="0 0 24 24" width="24" height="24">
  <path d="M11.28 2.04c-.34-.07-.67.14-.74.48L7.6 14.06c-.07.34.15.67.49.74l.26.05a.62.62 0 0 0 .74-.48l2.94-11.54c.07-.34-.15-.67-.49-.74l-.26-.05z" fill="#FF1A1A"/>
  <path d="M8.15 16.58a.62.62 0 0 0-.86-.17l-4.46 3.1a.62.62 0 0 0-.17.86l.15.22c.17.25.51.32.76.15l4.46-3.1a.62.62 0 0 0 .17-.86l-.05-.2z" fill="#FF1A1A"/>
  <path d="M9.47 18.8a.62.62 0 0 0-.6-.64l-5.43-.2a.62.62 0 0 0-.64.6l-.01.27c-.02.3.21.56.51.58l5.43.2c.34.01.63-.26.64-.6l.1-.21z" fill="#FF1A1A"/>
  <path d="M13.25 18.17a.62.62 0 0 0-.33.81l2.12 5a.62.62 0 0 0 .81.33l.25-.1a.62.62 0 0 0 .33-.81l-2.12-5a.62.62 0 0 0-.81-.33l-.25.1z" fill="#FF1A1A"/>
  <path d="M14.62 16.06a.62.62 0 0 0 .13.87l4.26 3.35c.27.21.65.16.87-.1l.17-.21a.62.62 0 0 0-.13-.87l-4.26-3.35a.62.62 0 0 0-.87.13l-.17.18z" fill="#FF1A1A"/>
</svg>
